<svg width="25" height="18" viewBox="0 0 25 18" fill="none" xmlns="http://www.w3.org/2000/svg">
<rect x="0.25" y="0.25" width="24.5" height="17.5" rx="1.75" fill="white" stroke="#E4E4E4" stroke-width="0.5"/>
<mask id="mask0" mask-type="alpha" maskUnits="userSpaceOnUse" x="0" y="0" width="25" height="18">
<rect x="0.25" y="0.25" width="24.5" height="17.5" rx="1.75" fill="white" stroke="white" stroke-width="0.5"/>
</mask>
<g mask="url(#mask0)">
<path fill-rule="evenodd" clip-rule="evenodd" d="M0 6H25V0H0V6Z" fill="#E41D33"/>
<path fill-rule="evenodd" clip-rule="evenodd" d="M0 18H25V12H0V18Z" fill="#262626"/>
<path d="M11.0109 8.54812L11.2956 9.1221L11.6021 8.55969L11.6021 8.55965L11.6022 8.55959L11.6022 8.55951L11.6022 8.55944L11.6032 8.55769L11.6078 8.54936C11.6121 8.54174 11.6187 8.5301 11.6274 8.51501C11.6448 8.48479 11.6707 8.44094 11.7034 8.38804C11.7694 8.28162 11.8615 8.14154 11.9679 8.00312C12.0758 7.86271 12.1902 7.73474 12.2994 7.64492C12.4173 7.54798 12.4831 7.53333 12.5 7.53333C12.5386 7.53333 12.6142 7.55527 12.7279 7.64698C12.8369 7.73485 12.9479 7.86037 13.051 7.99898C13.1527 8.13563 13.2387 8.27411 13.2997 8.37946C13.3299 8.43179 13.3536 8.47511 13.3694 8.50487C13.3773 8.51973 13.3832 8.53116 13.387 8.53857L13.3911 8.54659L13.3919 8.54812L13.3919 8.54819L13.3919 8.54823L13.3919 8.5483L13.392 8.54837L13.6905 9.15013L13.9891 8.54812L14.4925 7.53333L14.8095 7.53333C14.9936 7.53333 15.1429 7.68257 15.1429 7.86667V9.54879C15.1429 9.81558 14.845 9.97426 14.6236 9.82546L13.8764 9.32333L13.7921 9.26667H13.6905H13.0952H12.7619V9.6V10.2048C12.7619 10.3494 12.6446 10.4667 12.5 10.4667C12.3553 10.4667 12.2381 10.3494 12.2381 10.2048V9.6V9.26667H11.9048H11.3095H11.2079L11.1236 9.32333L10.3764 9.82546C10.155 9.97426 9.85714 9.81558 9.85714 9.54879V7.86667C9.85714 7.68257 10.0064 7.53333 10.1905 7.53333L10.5075 7.53333L11.0109 8.54812Z" fill="#F4B32E" fill-opacity="0.25" stroke="#C6A846" stroke-width="0.666667"/>
</g>
</svg>
