<svg xmlns="http://www.w3.org/2000/svg" width="29.077" height="21" viewBox="0 0 29.077 21">
  <g id="egypt" transform="translate(0 -26.111)">
    <g id="Group_1557" data-name="Group 1557" transform="translate(0 26.111)">
      <g id="Group_1556" data-name="Group 1556" transform="translate(0 0)">
        <path id="Path_1365" data-name="Path 1365" d="M29.077,43.881a3.231,3.231,0,0,1-3.231,3.231H3.231A3.231,3.231,0,0,1,0,43.881V29.342a3.231,3.231,0,0,1,3.231-3.231H25.846a3.231,3.231,0,0,1,3.231,3.231V43.881Z" transform="translate(0 -26.111)" fill="#141414"/>
        <path id="Path_1366" data-name="Path 1366" d="M29.077,147.966H0v-8.077H29.077Z" transform="translate(0 -133.427)" fill="#eee"/>
        <path id="Path_1367" data-name="Path 1367" d="M25.846,26.111H3.231A3.231,3.231,0,0,0,0,29.342v3.231H29.077V29.342a3.231,3.231,0,0,0-3.231-3.231" transform="translate(0 -26.111)" fill="#ce1225"/>
        <path id="Path_1368" data-name="Path 1368" d="M209.777,253.989a.4.4,0,0,0,.189.3s-.05.151.139.24a6.385,6.385,0,0,0,2.057.227,6.252,6.252,0,0,0,2.032-.215.371.371,0,0,0,.189-.29s.189-.1.177-.227-.265-.265-.265-.265a.426.426,0,0,0-.24-.227,10,10,0,0,1-1.83.227c-1.086-.051-1.7-.215-1.905-.2a.372.372,0,0,0-.291.214s-.227.1-.252.215" transform="translate(-197.864 -240.612)" fill="#bf9300"/>
        <path id="Path_1369" data-name="Path 1369" d="M212.216,255.362c-.011.075.151.24.151.24a.257.257,0,0,0,.165.24,11.881,11.881,0,0,0,3.862.012.86.86,0,0,0,.164-.24s.177-.126.164-.227-.265-.164-.265-.164a.7.7,0,0,0-.155-.214,10.037,10.037,0,0,1-1.788.252,8.163,8.163,0,0,1-1.906-.265c-.113.013-.189.227-.189.227s-.189.051-.2.139" transform="translate(-200.163 -241.997)" fill="#eee"/>
        <g id="Group_1553" data-name="Group 1553" transform="translate(12.204 8.469)">
          <path id="Path_1370" data-name="Path 1370" d="M214.9,179.219l.151-3.988.379.4-.126,3.243Z" transform="translate(-214.897 -175.231)" fill="#bf9300"/>
          <path id="Path_1371" data-name="Path 1371" d="M279.869,179.219l-.151-3.988-.379.4.126,3.243Z" transform="translate(-275.679 -175.231)" fill="#bf9300"/>
          <path id="Path_1372" data-name="Path 1372" d="M216.545,208.582l-.833,2.436s-.581-.038-.417.429c0,0,.089-.265.24-.215s.593.164.593.164l.152.24.189-.176.594-.026s.189.051.176.215a.353.353,0,0,0-.252-.492l-.19-.038.417-1.628c.271.385-.669-.909-.669-.909" transform="translate(-215.245 -206.688)" fill="#bf9300"/>
        </g>
        <path id="Path_1373" data-name="Path 1373" d="M226.99,212.966l-.454,1.729-.758-.152.783-2.221Z" transform="translate(-212.957 -201.747)" fill="#eee"/>
        <path id="Path_1374" data-name="Path 1374" d="M254.223,208.582l.833,2.436s.581-.038.416.429c0,0-.088-.265-.239-.215s-.593.164-.593.164l-.151.24-.19-.176-.594-.026s-.189.051-.176.215a.353.353,0,0,1,.252-.492l.19-.038-.417-1.628c-.27.385.669-.909.669-.909" transform="translate(-239.095 -198.22)" fill="#bf9300"/>
        <path id="Path_1375" data-name="Path 1375" d="M256.995,212.966l.454,1.729.758-.152-.783-2.221Z" transform="translate(-242.4 -201.747)" fill="#eee"/>
        <g id="Group_1554" data-name="Group 1554" transform="translate(11.75 6.722)">
          <path id="Path_1376" data-name="Path 1376" d="M232.539,182.164a2.747,2.747,0,0,1-.985-1.981,2.12,2.12,0,0,0,.972-.316,1.575,1.575,0,0,0,1,.291,2.68,2.68,0,0,1-.983,2.006m0-2.524a2.551,2.551,0,0,1-1.2.379,3.287,3.287,0,0,0,1.2,2.41,3.244,3.244,0,0,0,1.212-2.436,1.879,1.879,0,0,1-1.212-.353" transform="translate(-229.95 -177.643)" fill="#bf9300"/>
          <path id="Path_1377" data-name="Path 1377" d="M238.45,188.949a3.608,3.608,0,0,0,.391,1.3v-1.464a1.624,1.624,0,0,1-.391.164" transform="translate(-236.658 -186.268)" fill="#bf9300"/>
          <path id="Path_1378" data-name="Path 1378" d="M259.733,189.389a3.609,3.609,0,0,1-.391,1.3v-1.464a1.617,1.617,0,0,0,.391.164" transform="translate(-256.364 -186.684)" fill="#bf9300"/>
          <path id="Path_1379" data-name="Path 1379" d="M206.891,166.51s.025-.593.568-.518.581.341,1.161.4a5.956,5.956,0,0,0,.833.051l-.013.177s-.451-.044-.883-.089c-.48-.05-.668-.3-1.123-.366a.282.282,0,0,0-.341.3Z" transform="translate(-206.891 -164.764)" fill="#bf9300"/>
          <path id="Path_1380" data-name="Path 1380" d="M254.111,166.51s-.025-.593-.568-.518-.581.341-1.161.4a5.956,5.956,0,0,1-.833.051l.013.177s.451-.044.883-.089c.48-.05.668-.3,1.123-.366a.282.282,0,0,1,.341.3Z" transform="translate(-249.013 -164.764)" fill="#bf9300"/>
          <path id="Path_1381" data-name="Path 1381" d="M237.781,146.321a1.931,1.931,0,0,0,.467-1.325s-.252-.252-.316-.164-.138-.2,0-.315.442.037.442.037.076-.176.467.013.278.354.278.732a1.972,1.972,0,0,0,.291,1.06.648.648,0,0,1-.3-.076l-.026.126a1.419,1.419,0,0,1-.265-.126l-.227.114-.126-.177a1.837,1.837,0,0,1-.366.215l.05-.177a2,2,0,0,1-.366.063" transform="translate(-236.027 -144.474)" fill="#bf9300"/>
        </g>
        <path id="Path_1382" data-name="Path 1382" d="M241.109,147.743s.088-.088.341.088c.164.115.309.2.309.2a.306.306,0,0,1,.255-.084c.151.026.066.236.091.678a1.048,1.048,0,0,0,.2.631l-.214-.126.012.139-.24-.114-.113.164-.114-.177-.184.113-.056-.151-.214.114a1.681,1.681,0,0,0,.341-.821,3.63,3.63,0,0,0-.026-.416s-.2-.253-.391-.24" transform="translate(-227.416 -140.815)" fill="#eee"/>
        <g id="Group_1555" data-name="Group 1555" transform="translate(11.536 8.291)">
          <path id="Path_1383" data-name="Path 1383" d="M242.489,225.826l.151.227.19-.151.151-.695-.088.758.1.24.177-.19-.026-.883.139.871.19.126.126-.24-.341-1.338-.442.025Z" transform="translate(-240.253 -221.573)" fill="#bf9300"/>
          <path id="Path_1384" data-name="Path 1384" d="M219.643,262.727c-.145.086-.088.139,0,.177a8.979,8.979,0,0,0,1.691.126,6.276,6.276,0,0,0,1.867-.152c.089-.05.1-.138-.05-.164s-.909.1-1.83.1c-1.136,0-1.615-.126-1.678-.088" transform="translate(-218.621 -257.565)" fill="#bf9300"/>
          <path id="Path_1385" data-name="Path 1385" d="M204.725,172.924l-.107-.043h0l-.851-.765-.43.177-.214,4.581.442-.341,0-.054.918-.817.177-.177.5-1.174-.24-.455Z" transform="translate(-203.122 -172.115)" fill="#bf9300"/>
          <path id="Path_1386" data-name="Path 1386" d="M268.1,176.859l-.215-4.581-.429-.177-.77.733-.189.075-.2.934-.139.378.4,1.249.177.177.918.817,0,.054Z" transform="translate(-262.576 -172.101)" fill="#bf9300"/>
          <path id="Path_1387" data-name="Path 1387" d="M239.937,230.547l-.179.593.409.164.787-.054.115-.244-.385-1.335s-.5-.047-.516,0l-.23.876" transform="translate(-237.677 -226.381)" fill="#bf9300"/>
        </g>
      </g>
    </g>
  </g>
</svg>
