<svg width="25" height="18" viewBox="0 0 25 18" fill="none" xmlns="http://www.w3.org/2000/svg">
<rect width="25" height="18" rx="2" fill="white"/>
<mask id="mask0" mask-type="alpha" maskUnits="userSpaceOnUse" x="0" y="0" width="25" height="18">
<rect width="25" height="18" rx="2" fill="white"/>
</mask>
<g mask="url(#mask0)">
<rect width="25" height="18" fill="#128C4B"/>
<path fill-rule="evenodd" clip-rule="evenodd" d="M5.95239 10.8H15.4762V10.0826C15.4762 9.58603 15.9995 9.26375 16.4429 9.48722L16.6667 9.6V10.8H18.381C18.7492 10.8 19.0476 11.0985 19.0476 11.4667V11.8667C19.0476 12.603 18.4507 13.2 17.7143 13.2H16.1429C15.7747 13.2 15.4762 12.9015 15.4762 12.5333V12H7.42057C7.24284 12 7.07246 11.929 6.94729 11.8029L5.95239 10.8Z" fill="white"/>
<path fill-rule="evenodd" clip-rule="evenodd" d="M5.95239 7.33729C5.95239 7.24935 5.98715 7.16497 6.04909 7.10253L6.31473 6.83476C6.44366 6.7048 6.44366 6.49519 6.31473 6.36524L6.04909 6.09747C5.98715 6.03503 5.95239 5.95065 5.95239 5.86271V5.13333C5.95239 4.94924 6.10163 4.8 6.28573 4.8H6.91501C7.04085 4.8 7.14287 4.90202 7.14287 5.02786C7.14287 5.2687 7.46784 5.34486 7.57486 5.12911L7.66256 4.95231C7.70883 4.85901 7.80398 4.8 7.90813 4.8H9.22382C9.38951 4.8 9.52382 4.93431 9.52382 5.1C9.52382 5.26568 9.38951 5.4 9.22382 5.4H8.63335C8.46766 5.4 8.33335 5.53431 8.33335 5.7C8.33335 5.86568 8.46766 6 8.63335 6H9.19049C9.37458 6 9.52382 6.14924 9.52382 6.33333V8.06667C9.52382 8.25076 9.37458 8.4 9.19049 8.4H8.66668C8.48258 8.4 8.33335 8.25076 8.33335 8.06667V7.49762C8.33335 7.33325 8.46659 7.2 8.63096 7.2C8.79533 7.2 8.92858 7.06557 8.92858 6.90119C8.92858 6.73551 8.79427 6.6 8.62858 6.6H8.07144C7.88735 6.6 7.73811 6.74924 7.73811 6.93333V8.10238C7.73811 8.26675 7.60486 8.4 7.44049 8.4C7.27612 8.4 7.14287 8.26675 7.14287 8.10238V7.49762C7.14287 7.33325 7.00962 7.2 6.84525 7.2C6.68088 7.2 6.54763 7.33325 6.54763 7.49762V8.10238C6.54763 8.26675 6.41438 8.4 6.25001 8.4C6.08564 8.4 5.95239 8.26675 5.95239 8.10238V7.33729Z" fill="white"/>
<path fill-rule="evenodd" clip-rule="evenodd" d="M15.4762 7.33729C15.4762 7.24935 15.511 7.16497 15.5729 7.10253L15.8385 6.83476C15.9675 6.7048 15.9675 6.49519 15.8385 6.36524L15.5729 6.09747C15.511 6.03503 15.4762 5.95065 15.4762 5.86271V5.13333C15.4762 4.94924 15.6254 4.8 15.8095 4.8H16.4388C16.5647 4.8 16.6667 4.90202 16.6667 5.02786C16.6667 5.2687 16.9916 5.34486 17.0987 5.12911L17.1864 4.95231C17.2326 4.85901 17.3278 4.8 17.4319 4.8H18.7476C18.9133 4.8 19.0476 4.93431 19.0476 5.1C19.0476 5.26568 18.9133 5.4 18.7476 5.4H18.1571C17.9915 5.4 17.8571 5.53431 17.8571 5.7C17.8571 5.86568 17.9915 6 18.1571 6H18.7143C18.8984 6 19.0476 6.14924 19.0476 6.33333V8.06667C19.0476 8.25076 18.8984 8.4 18.7143 8.4H18.1905C18.0064 8.4 17.8571 8.25076 17.8571 8.06667V7.49762C17.8571 7.33325 17.9904 7.2 18.1548 7.2C18.3191 7.2 18.4524 7.06557 18.4524 6.90119C18.4524 6.73551 18.3181 6.6 18.1524 6.6H17.5952C17.4111 6.6 17.2619 6.74924 17.2619 6.93333V8.10238C17.2619 8.26675 17.1287 8.4 16.9643 8.4C16.7999 8.4 16.6667 8.26675 16.6667 8.10238V7.49762C16.6667 7.33325 16.5334 7.2 16.3691 7.2C16.2047 7.2 16.0714 7.33325 16.0714 7.49762V8.10238C16.0714 8.26675 15.9382 8.4 15.7738 8.4C15.6094 8.4 15.4762 8.26675 15.4762 8.10238V7.33729Z" fill="white"/>
<path fill-rule="evenodd" clip-rule="evenodd" d="M14.2857 5.69719C14.2857 5.86443 14.1927 6.09375 14.0708 6.21661L13.9054 6.38339C13.7867 6.50302 13.7835 6.69375 13.9054 6.81661L14.0708 6.98339C14.1895 7.10302 14.2857 7.32842 14.2857 7.50281V8.09719C14.2857 8.26443 14.1583 8.4 13.9853 8.4H13.3957C13.2297 8.4 13.0952 8.27158 13.0952 8.09719V7.50281C13.0952 7.33557 13.0403 7.31074 12.9572 7.47832L12.6381 8.12168C12.5618 8.27539 12.3599 8.4 12.2051 8.4H11.0092C10.8463 8.4 10.7143 8.26084 10.7143 8.1C10.7143 7.93431 10.8417 7.8 11.0147 7.8H11.6044C11.7703 7.8 11.9048 7.66084 11.9048 7.5C11.9048 7.33431 11.7774 7.2 11.6044 7.2H11.0147C10.8488 7.2 10.7143 7.07097 10.7143 6.90571V5.09429C10.7143 4.93176 10.8417 4.8 11.0147 4.8H11.6044C11.7703 4.8 11.9048 4.92842 11.9048 5.10281V5.69719C11.9048 5.86443 11.7667 6 11.6072 6C11.4428 6 11.3095 6.13916 11.3095 6.3C11.3095 6.46568 11.4369 6.6 11.6099 6.6H12.1996C12.3655 6.6 12.5 6.45876 12.5 6.30277V5.09723C12.5 4.93308 12.6381 4.8 12.7976 4.8C12.962 4.8 13.0952 4.92842 13.0952 5.10281V5.69719C13.0952 5.86443 13.2333 6 13.3929 6C13.5572 6 13.6905 5.87158 13.6905 5.69719V5.10281C13.6905 4.93557 13.8285 4.8 13.9881 4.8C14.1525 4.8 14.2857 4.92842 14.2857 5.10281V5.69719Z" fill="white"/>
</g>
</svg>
